<svg width="85" height="36" viewBox="0 0 85 36" fill="none" xmlns="http://www.w3.org/2000/svg">
<path d="M6.77915 9.54824V6.98699H7.09523L12.3267 19.6243H16.0215L21.2312 6.99788H21.5527V9.55913L22.1576 19.6243H28.31L26.8932 0.469409C26.8932 0.469409 22.1576 0.0225523 17.9124 0.0225523L14.1523 10.3766L10.3922 0.0225523C6.14701 0.0225523 1.41685 0.469409 1.41685 0.469409L0 19.6243H6.15245L6.77915 9.54824ZM38.1027 9.54824V6.98699H38.4243L43.634 19.6134H47.3287L52.5384 6.98699H52.8545V9.54824L53.4594 19.6134H59.6118L58.195 0.45851C58.195 0.45851 53.4594 0.0116531 49.2142 0.0116531L45.4595 10.3657L41.6994 0.0116531C37.4543 0.0116531 32.7187 0.45851 32.7187 0.45851L31.3018 19.6134H37.4542L38.1027 9.54824ZM84.0091 19.717C84.886 17.1303 85.1728 14.3801 84.8484 11.6681L77.2627 9.96785C79.7543 9.1957 82.2013 8.28606 84.5922 7.24311C84.6469 4.86463 84.1761 2.5034 83.2135 0.327724V0.327724C83.2135 0.327724 80.14 0.000753913 75.9712 0.000753913C71.6659 -0.0140029 67.3627 0.187883 63.0777 0.605646L62.5328 5.57557L77.2463 5.21045V5.7554C73.9209 6.92513 70.5128 7.84501 67.0504 8.50739V11.4665L76.9466 13.9569V14.5509C76.9466 14.5509 73.8786 14.7688 70.707 14.7688C67.5354 14.7688 62.2984 14.4528 62.2984 14.4528V19.5644C66.3794 20.0153 70.4812 20.2518 74.587 20.2728C77.7344 20.2577 80.879 20.0849 84.0091 19.7551V19.717ZM84.9792 31.0955V26.1909H0.0217859V36H84.9792V31.0955Z" fill="white"/>
</svg>
