<svg width="76" height="38" viewBox="0 0 76 38" fill="none" xmlns="http://www.w3.org/2000/svg">
<path d="M44.099 15.9477C45.9574 16.3617 47.947 14.1176 47.8158 12.7887C47.466 11.8083 45.8918 12.4401 45.0173 13.1808L44.099 15.9477ZM69.3076 9.5207C72.6527 7.1024 76.3914 2.44009 75.167 1.72113C73.8989 0.893246 70.0291 7.32026 69.3076 9.5207ZM38.2833 6.16558C40.6227 4.94553 42.0657 7.79956 40.6008 8.97604C38.1959 10.6754 36.25 7.53813 38.2833 6.16558ZM39.7919 11.7211L37.6493 18.2135C37.2557 19.1068 38.1303 19.5861 38.9611 18.6928L39.9887 17.8214L44.0771 5.57734L47.7502 4.98911L45.542 11.6122C48.6247 9.17211 51.7075 8.45316 52.101 10.5664C52.1666 13.7691 47.7502 16.9063 45.2359 16.6885C47.1599 19.2157 49.6305 19.8475 50.352 17.8214L52.3853 13.4641C52.7569 12.5054 53.2379 11.6993 53.7627 11.024C54.9214 9.54248 56.3644 8.7146 57.5669 8.60566C59.0755 8.51852 59.6221 9.25926 59.9719 10.1525L60.5622 8.3878L64.3665 7.75599L62.202 14.1612C61.9177 15.098 62.7704 15.6209 63.4045 14.7277C63.6887 14.488 64.3446 13.9216 64.607 13.7037C65.0224 11.3943 65.9188 8.69281 67.0775 6.38344C70.6631 1.19826 71.8656 0.915033 73.3523 0.130719C77.3752 -0.174292 76.61 3.5512 72.4341 7.77778L68.8485 10.7625C68.3019 12.0915 68.1926 14.0959 69.0671 14.2048C69.8979 14.3137 70.5976 13.8126 71.2316 13.3551C71.8 12.963 72.6746 11.9826 72.4997 12.6144C69.5044 17.7342 65.6127 22.4837 51.6638 26.4488C47.8377 27.5381 44.4925 27.5163 39.2453 27.5817C38.1521 27.2113 36.6873 27.8649 36.4031 28.8889C35.6378 30.6318 35.9002 31.8736 33.2984 32.0044C17.8847 31.1765 1.20285 32.8758 0.131541 37.2549C-0.677408 33.4423 2.4272 30.8279 4.46051 30.1307C13.665 26.5795 24.4656 26.8192 35.6816 27.0806C36.8841 27.0152 37.059 26.8627 37.54 25.5773C37.9335 24.488 38.9392 23.9869 40.1854 24.0087C51.5107 25.9477 64.7819 20.8715 68.9797 16.2527C69.2858 15.9259 70.5538 14.7277 70.9036 14.2048C68.3675 16.9935 65.3941 18.5185 64.5632 14.7059L61.8084 17.0806C59.5565 19.0196 58.1791 18.2571 57.8293 16.4052L55.796 18.1264C53.7845 19.8257 52.2759 19.4118 51.795 17.1895L49.5649 22.0479C48.6247 23.878 44.6456 20.7843 43.6617 17.1678L42.3718 20.9804L38.655 21.5904L39.4202 19.281L37.3432 21.0893C36.0751 22.2004 33.845 23.159 33.2547 20.3486L31.1558 22.1351C29.5598 23.4205 27.8107 23.8344 27.1111 21.329L24.7061 23.4205C24.0502 23.9216 22.9352 24.2484 22.323 24.1394C21.2954 23.9434 20.071 21.9172 21.5359 18.2571L19.109 20.3486C22.6509 26.5142 16.6166 26.1002 13.5994 23.9651C15.1955 22.5926 15.5453 22.4183 16.4854 21.4815C15.3048 19.6732 14.0804 19.1503 13.5776 18.7582C22.0825 9.78214 22.3886 2.72331 20.2897 1.30719C16.8134 -1.08932 3.25802 12.4619 4.39492 20.8715C4.59169 22.244 6.144 23.0719 6.75618 22.8976C2.27416 24.2702 -1.66127 21.5033 0.743715 15.7952C2.95193 10.5447 11.2382 0.457516 21.4922 0C27.9419 1.06754 26.1272 10.5229 16.4636 18.1046C17.8628 18.8889 18.0159 19.1285 18.5843 19.695L24.1376 14.9673C26.8924 12.658 28.6634 13.9869 29.2318 15.3813L29.9315 13.3551L33.692 12.7015C33.0361 14.8802 32.1615 17.1024 31.5056 19.3028C31.1995 19.9129 31.768 20.4575 32.577 19.9782L34.0199 18.7146L36.1407 12.3529L39.7919 11.7211ZM55.7085 15.8388C56.1895 16.5142 56.8454 16.2092 57.3046 15.7081L58.3759 14.8366L59.469 11.4161C58.7475 8.25708 54.6153 13.8126 55.7085 15.8388ZM28.6415 17.037C28.8602 15.9041 28.3354 15.7734 28.0293 15.6427C26.6519 15.0763 24.0065 19.4771 25.034 21.1547C25.1434 21.329 25.7774 21.5904 26.4114 21.024L27.6577 19.9129L28.6415 17.037ZM16.879 22.2658L14.7145 24.0741C14.3865 24.3573 17.9066 24.8148 16.879 22.2658ZM11.6099 22.5926C8.98625 29.6296 1.50894 27.037 0.634399 24.5098C3.69529 27.4074 7.49953 25.4684 8.22103 22.244L12.0034 10.8061L15.6327 10.2614L11.6099 22.5926Z" fill="white"/>
</svg>
