<svg width="1440" height="850" viewBox="0 0 1440 850" fill="none" xmlns="http://www.w3.org/2000/svg">
<rect width="1440" height="850" fill="#111111"/>
<g clip-path="url(#clip0)">
<rect width="1440" height="850" fill="#111111"/>
<path d="M398.697 2.00018V486.582L-1 577.477M463.433 2.00018V486.581L-1 618.595M528.169 2.00018V486.582L-1 687.104M592.914 2.00021V486.581L-0.688825 823.89L1444.44 823.89M657.645 2.00018V486.581L360.588 823.89M722.384 2.00018V486.581L721.878 823.89M787.124 2.00018V486.581L1083.16 823.89M851.86 2.00018V486.581L1444.44 823.89M916.604 2.00018V486.581L1446 687.418M981.341 2.00018V486.582L1446 618.771M1046.07 2.00018V486.581L1446 577.592M1110.82 2.00018V486.581L1446 550.142M1175.55 2.00018V486.582L1445.99 530.538M1240.29 2.00018V486.581L1446 515.836M1305.03 2.00018V486.582L1446 504.401M1369.77 2.00018V486.582L1446 495.255M1434.5 2.00018V486.582L1446 487.769M-1 530.478L269.22 486.581V2M333.956 2.00018V486.582L-1 550.063M204.486 2.00018V486.582L-1 515.793M139.742 2.00018V486.581L-0.998533 504.364M75.007 2.00018V486.581L-1 495.223M10.264 2.00018V486.582L-1 487.746M-1 449.812H1446M-1 413.038H1446M-1 376.269H1446M-1 339.5H1446M-1 302.726H1446M-1 265.956H1446M-1 229.187H1446M-1 192.413H1446M-1 155.644H1446M-1 118.874H1446M-1 82.1003H1446M-1 45.3309H1446M-1 8.55766H1446M1446 648.357H-1M1446 619.935H-1M1446 597.639H-1M1446 685.824H-1M1446 579.677H-1M1446 564.9H-1M1446 489.886H-1M1446 486.582H-1M1446 497.472H-1M1446 493.501H-1M1446 532.982H-1M1446 552.526H-1M1446 737.479H-1M1446 506.72H-1M1446 501.857H-1M1446 525.129H-1M1446 518.236H-1M1446 512.145H-1M1446 542.019H-1" stroke="rgba(255,255,255,0.75)" stroke-opacity="0.4" stroke-width="0.25" stroke-linecap="round" stroke-linejoin="round"/>
</g>
<defs>
<clipPath id="clip0">
<rect width="1440" height="850" fill="rgba(255,255,255,0.75)"/>
</clipPath>
</defs>
</svg>
